<svg width="841" height="200" viewBox="0 0 841 200" fill="none" xmlns="http://www.w3.org/2000/svg">
<g clip-path="url(#clip0_3067_177864)">
<path d="M840.443 100.02C840.443 155.237 795.662 200 740.44 200H99.9971C44.7634 200 0 155.237 0 100.02C0 44.7751 44.7634 0 99.9971 0H740.44C795.656 0 840.443 44.7751 840.443 100.02Z" fill="#0094F7"/>
<path d="M126.591 67.8203C124.609 67.8203 122.838 67.1831 121.4 65.9496C119.962 64.6985 119.248 62.9564 119.248 60.6589C119.248 58.6244 119.979 56.9232 121.458 55.5728C122.931 54.2808 124.633 53.5734 126.591 53.5734C128.549 53.5734 130.175 54.1756 131.648 55.3799C133.08 56.6075 133.823 58.3497 133.823 60.6589C133.823 62.9681 133.103 64.6634 131.665 65.932C130.251 67.1831 128.561 67.8203 126.591 67.8203ZM133.823 82.8623V124.954C133.823 127.871 133.103 130.075 131.73 131.572C130.332 133.068 128.59 133.805 126.457 133.805C124.323 133.805 122.581 133.045 121.248 131.49C119.926 129.964 119.248 127.789 119.248 124.954V83.2773C119.248 80.4127 119.926 78.2322 121.248 76.7765C122.575 75.3267 124.323 74.6018 126.457 74.6018C128.59 74.6018 130.332 75.3267 131.73 76.7765C133.103 78.238 133.823 80.2608 133.823 82.8623V82.8623Z" fill="white"/>
<path d="M162.088 82.6459V84.3997C164.643 81.0382 167.449 78.5302 170.495 76.9635C173.529 75.3967 177.013 74.5958 180.977 74.5958C184.941 74.5958 188.261 75.4318 191.254 77.0804C194.277 78.7641 196.574 81.1317 198.053 84.1717C199.006 85.9781 199.608 87.8839 199.901 89.9535C200.187 92.0171 200.31 94.642 200.31 97.8281V124.948C200.31 127.865 199.673 130.069 198.352 131.566C197.019 133.062 195.282 133.799 193.119 133.799C190.956 133.799 189.214 133.039 187.846 131.484C186.49 129.958 185.812 127.783 185.812 124.948V100.669C185.812 95.8697 185.128 92.2042 183.824 89.6612C182.497 87.1064 179.843 85.8437 175.85 85.8437C173.231 85.8437 170.869 86.6212 168.747 88.1529C166.637 89.7079 165.064 91.8242 164.064 94.5485C163.334 96.7232 163 100.751 163 106.697V124.954C163 127.889 162.328 130.116 160.919 131.595C159.575 133.086 157.809 133.805 155.634 133.805C153.46 133.805 151.788 133.045 150.472 131.49C149.11 129.964 148.438 127.789 148.438 124.954V82.8622C148.438 80.1087 149.028 78.0158 150.209 76.6536C151.46 75.2798 153.115 74.6017 155.196 74.6017C156.464 74.6017 157.645 74.8881 158.668 75.4961C159.703 76.0924 160.504 77.0395 161.159 78.2321C161.761 79.4364 162.082 80.9096 162.082 82.6517L162.088 82.6459Z" fill="white"/>
<path d="M261.723 114.764C261.723 118.78 260.735 122.23 258.8 125.077C256.836 127.941 253.948 130.116 250.118 131.595C246.318 133.086 241.653 133.805 236.187 133.805C230.721 133.805 226.465 132.992 222.747 131.408C219.011 129.806 216.246 127.807 214.457 125.404C212.692 123.001 211.827 120.587 211.827 118.167C211.827 116.576 212.376 115.197 213.534 114.057C214.674 112.923 216.088 112.35 217.831 112.35C219.362 112.35 220.549 112.712 221.356 113.472C222.18 114.215 222.975 115.267 223.712 116.617C225.191 119.219 226.98 121.154 229.078 122.452C231.154 123.726 233.983 124.363 237.579 124.363C240.49 124.363 242.899 123.709 244.734 122.417C246.628 121.119 247.529 119.64 247.529 117.968C247.529 115.407 246.57 113.537 244.652 112.356C242.706 111.186 239.52 110.064 235.076 108.982C230.066 107.749 225.974 106.439 222.835 105.089C219.678 103.698 217.176 101.926 215.288 99.6813C213.405 97.4423 212.464 94.6771 212.464 91.3974C212.464 88.4803 213.312 85.7268 215.083 83.1136C216.796 80.5413 219.374 78.4484 222.771 76.905C226.155 75.3734 230.271 74.6017 235.071 74.6017C238.847 74.6017 242.232 74.9817 245.231 75.7767C248.236 76.5484 250.721 77.6007 252.743 78.9219C254.749 80.2139 256.298 81.6754 257.35 83.2831C258.391 84.9025 258.934 86.4634 258.934 87.9775C258.934 89.6729 258.344 91.035 257.21 92.099C256.122 93.1337 254.532 93.7008 252.463 93.7008C250.984 93.7008 249.703 93.2565 248.645 92.403C247.599 91.5553 246.412 90.2925 245.038 88.5621C243.957 87.1298 242.641 86.0074 241.151 85.1597C239.672 84.3062 237.643 83.8677 235.071 83.8677C232.498 83.8677 230.265 84.4406 228.517 85.5455C226.758 86.6855 225.886 88.0827 225.886 89.7547C225.886 91.2864 226.53 92.5257 227.827 93.5079C229.102 94.4666 230.832 95.2792 233.007 95.9106C235.164 96.5712 238.157 97.3721 241.934 98.2841C246.47 99.389 250.165 100.699 253.036 102.219C255.883 103.762 258.063 105.562 259.554 107.632C261.004 109.707 261.735 112.087 261.735 114.77L261.723 114.764Z" fill="white"/>
<path d="M311.87 125.591V123.726C310.128 125.919 308.281 127.766 306.375 129.263C304.481 130.765 302.347 131.87 300.091 132.601C297.822 133.337 295.215 133.682 292.286 133.682C288.779 133.682 285.616 132.951 282.792 131.484C280.039 130.058 277.87 128.023 276.356 125.504C274.52 122.382 273.631 117.933 273.631 112.145V83.2715C273.631 80.3485 274.274 78.1796 275.596 76.7473C276.905 75.2975 278.653 74.5901 280.828 74.5901C283.003 74.5901 284.827 75.315 286.148 76.7648C287.504 78.2263 288.194 80.4011 288.194 83.2657V106.562C288.194 109.965 288.486 112.8 289.047 115.086C289.615 117.372 290.62 119.19 292.105 120.488C293.602 121.756 295.595 122.44 298.103 122.44C300.611 122.44 302.868 121.715 305.031 120.265C307.194 118.781 308.784 116.875 309.795 114.519C310.608 112.484 311.011 107.948 311.011 100.991V83.2657C311.011 80.4011 311.701 78.2205 313.04 76.7648C314.402 75.315 316.173 74.5901 318.325 74.5901C320.476 74.5901 322.259 75.2975 323.563 76.7473C324.884 78.1796 325.533 80.3485 325.533 83.2715V125.504C325.533 128.245 324.901 130.338 323.639 131.73C322.37 133.103 320.745 133.805 318.734 133.805C316.723 133.805 315.103 133.086 313.823 131.636C312.531 130.215 311.865 128.204 311.865 125.591H311.87Z" fill="white"/>
<path d="M354.506 112.788V124.954C354.506 127.889 353.816 130.116 352.413 131.595C351.01 133.086 349.274 133.805 347.163 133.805C345.053 133.805 343.317 133.068 341.978 131.572C340.639 130.075 339.932 127.871 339.932 124.954V84.3997C339.932 77.8404 342.305 74.6017 347.046 74.6017C349.443 74.6017 351.185 75.35 352.261 76.8933C353.319 78.4192 353.91 80.6816 354.009 83.6689C355.763 80.6816 357.563 78.4133 359.376 76.8933C361.211 75.35 363.643 74.6017 366.718 74.6017C369.793 74.6017 372.775 75.35 375.628 76.8933C378.522 78.4192 379.942 80.4478 379.942 82.9791C379.942 84.768 379.334 86.212 378.107 87.3695C376.896 88.5446 375.552 89.0999 374.143 89.0999C373.599 89.0999 372.307 88.7843 370.255 88.112C368.221 87.463 366.385 87.1298 364.859 87.1298C362.72 87.1298 360.978 87.691 359.633 88.7959C358.277 89.9359 357.23 91.5962 356.482 93.8002C355.763 95.9983 355.225 98.6349 354.944 101.651C354.646 104.686 354.512 108.386 354.512 112.782L354.506 112.788Z" fill="white"/>
<path d="M425.846 107.755H397.352C397.369 111.064 398.036 114.004 399.351 116.518C400.608 119.055 402.374 120.961 404.513 122.236C406.671 123.504 409.026 124.147 411.64 124.147C413.376 124.147 414.96 123.948 416.393 123.539C417.842 123.13 419.257 122.499 420.602 121.61C421.94 120.745 423.192 119.821 424.337 118.816C425.477 117.81 426.945 116.465 428.757 114.764C429.523 114.115 430.587 113.788 431.949 113.788C433.446 113.788 434.673 114.221 435.579 115.016C436.503 115.846 436.971 117.015 436.971 118.477C436.971 119.815 436.474 121.341 435.422 123.101C434.416 124.86 432.838 126.532 430.762 128.158C428.699 129.777 426.056 131.127 422.917 132.174C419.777 133.267 416.17 133.799 412.061 133.799C402.695 133.799 395.423 131.127 390.243 125.796C385.046 120.452 382.462 113.227 382.462 104.083C382.462 99.7808 383.105 95.7762 384.362 92.099C385.66 88.4218 387.513 85.2767 389.974 82.6342C392.424 80.0035 395.475 77.9691 399.047 76.5894C402.648 75.1746 406.635 74.4614 411.026 74.4614C416.685 74.4614 421.543 75.6716 425.647 78.0743C429.704 80.4653 432.779 83.5696 434.79 87.3871C436.801 91.1637 437.836 95.0688 437.836 99.0091C437.836 102.639 436.784 105.042 434.702 106.106C432.58 107.199 429.64 107.731 425.851 107.731L425.846 107.755ZM397.352 99.506H423.753C423.379 94.5252 422.046 90.807 419.731 88.34C417.386 85.8496 414.329 84.6044 410.5 84.6044C406.916 84.6044 403.894 85.8905 401.59 88.3692C399.269 90.8947 397.849 94.6011 397.346 99.506H397.352Z" fill="white"/>
<path d="M498.524 105.27V124.638C498.524 127.684 497.822 129.97 496.431 131.49C495.069 133.051 493.233 133.805 490.971 133.805C488.708 133.805 486.972 133.045 485.587 131.49C484.213 129.964 483.529 127.684 483.529 124.638V101.435C483.529 97.758 483.412 94.9226 483.184 92.8823C482.915 90.8479 482.243 89.1935 481.144 87.884C480.045 86.6037 478.297 85.9547 475.923 85.9547C471.153 85.9547 468.019 87.58 466.476 90.8479C464.985 94.1276 464.243 98.822 464.243 104.949V124.632C464.243 127.637 463.547 129.935 462.191 131.455C460.799 133.021 458.999 133.805 456.771 133.805C454.544 133.805 452.767 133.021 451.346 131.455C449.955 129.941 449.207 127.643 449.207 124.632V82.9732C449.207 80.2022 449.855 78.1327 451.13 76.7238C452.375 75.3032 454.059 74.5958 456.128 74.5958C458.198 74.5958 459.776 75.2623 461.133 76.601C462.442 77.9281 463.097 79.7404 463.097 82.1022V83.5052C465.646 80.4653 468.329 78.2379 471.205 76.8173C474.105 75.4026 477.309 74.7069 480.84 74.7069C484.371 74.7069 487.627 75.4377 490.287 76.8933C492.894 78.3432 495.075 80.553 496.788 83.5052C499.226 80.5413 501.856 78.2789 504.668 76.8232C507.498 75.4318 510.579 74.7069 514.01 74.7069C518.009 74.7069 521.417 75.4844 524.317 77.0453C527.187 78.6062 529.327 80.8687 530.771 83.7859C532.01 86.4049 532.624 90.5498 532.624 96.1737V124.638C532.624 127.684 531.94 129.97 530.543 131.49C529.187 133.051 527.328 133.805 525.083 133.805C522.838 133.805 521.055 133.021 519.64 131.455C518.237 129.941 517.541 127.643 517.541 124.632V100.12C517.541 96.9921 517.43 94.4959 517.15 92.6193C516.881 90.7368 516.144 89.1467 514.975 87.8547C513.823 86.592 512.017 85.9606 509.643 85.9606C507.749 85.9606 505.908 86.5101 504.183 87.656C502.447 88.7901 501.12 90.3101 500.143 92.2568C499.091 94.6888 498.542 99.0441 498.542 105.264L498.524 105.27Z" fill="white"/>
<path d="M587.413 107.755H558.931C558.931 111.064 559.633 114.004 560.937 116.518C562.205 119.055 563.942 120.961 566.099 122.236C568.238 123.504 570.629 124.147 573.219 124.147C574.938 124.147 576.557 123.948 577.984 123.539C579.422 123.13 580.819 122.499 582.193 121.61C583.52 120.745 584.771 119.821 585.899 118.816C587.045 117.81 588.524 116.465 590.331 114.764C591.061 114.115 592.143 113.788 593.523 113.788C595.019 113.788 596.241 114.221 597.147 115.016C598.088 115.846 598.562 117.015 598.562 118.477C598.562 119.815 598.047 121.341 597.007 123.101C595.966 124.86 594.417 126.532 592.359 128.158C590.249 129.777 587.659 131.127 584.514 132.174C581.339 133.267 577.727 133.799 573.623 133.799C564.281 133.799 557.014 131.127 551.823 125.796C546.608 120.452 544.03 113.227 544.03 104.083C544.03 99.7808 544.673 95.7762 545.959 92.099C547.245 88.4218 549.098 85.2767 551.536 82.6342C554.009 80.0035 557.026 77.9691 560.638 76.5894C564.205 75.1746 568.197 74.4614 572.57 74.4614C578.276 74.4614 583.152 75.6716 587.238 78.0743C591.284 80.4653 594.335 83.5696 596.376 87.3871C598.41 91.1637 599.415 95.0688 599.415 99.0091C599.415 102.639 598.381 105.042 596.264 106.106C594.166 107.199 591.225 107.731 587.413 107.731V107.755ZM558.931 99.506H585.321C584.958 94.5252 583.602 90.807 581.269 88.34C578.989 85.8496 575.891 84.6044 572.108 84.6044C568.326 84.6044 565.502 85.8905 563.135 88.3692C560.837 90.8947 559.405 94.6011 558.931 99.506V99.506Z" fill="white"/>
<path d="M640.432 124.954V61.7871C640.432 58.8758 641.081 56.6543 642.39 55.1635C643.676 53.6845 645.43 52.9186 647.616 52.9186C649.803 52.9186 651.615 53.6611 652.96 55.1518C654.334 56.6017 654.994 58.829 654.994 61.7871V124.954C654.994 127.889 654.299 130.116 652.936 131.595C651.563 133.086 649.797 133.805 647.616 133.805C645.436 133.805 643.741 133.045 642.402 131.49C641.098 129.964 640.437 127.789 640.437 124.954H640.432Z" fill="white"/>
<path d="M706.305 127.129L693.455 106.001L685.569 113.478V125.077C685.569 127.871 684.809 130.028 683.318 131.537C681.868 133.051 680.144 133.805 678.238 133.805C676.005 133.805 674.251 133.068 672.947 131.572C671.685 130.075 671.053 127.871 671.053 124.954V62.8511C671.053 59.6182 671.667 57.1746 672.901 55.4734C674.169 53.7663 675.929 52.9186 678.244 52.9186C680.559 52.9186 682.272 53.6962 683.587 55.2161C684.885 56.742 685.575 59.0044 685.575 61.9917V97.3079L701.938 80.1438C703.972 78.0041 705.522 76.5309 706.562 75.7651C707.644 74.9759 708.965 74.59 710.462 74.59C712.309 74.59 713.811 75.1396 715.01 76.3029C716.202 77.4722 716.828 78.9395 716.828 80.67C716.828 82.8038 714.829 85.6333 710.883 89.1877L703.172 96.279L718.097 119.768C719.19 121.505 719.979 122.826 720.464 123.738C720.961 124.638 721.195 125.509 721.195 126.339C721.195 128.637 720.558 130.449 719.277 131.788C718.026 133.115 716.378 133.799 714.326 133.799C712.531 133.799 711.169 133.331 710.204 132.361C709.257 131.402 707.93 129.643 706.317 127.117L706.305 127.129Z" fill="white"/>
<path d="M615.884 133.805C613.686 133.805 611.78 133.086 610.184 131.671C608.565 130.25 607.781 128.245 607.781 125.708C607.781 123.498 608.535 121.651 610.067 120.084C611.599 118.529 613.469 117.74 615.732 117.74C617.994 117.74 619.871 118.5 621.473 120.078C623.063 121.604 623.846 123.481 623.846 125.708C623.846 128.234 623.069 130.215 621.473 131.636C619.871 133.086 618.029 133.805 615.884 133.805V133.805Z" fill="#FFCA05"/>
<path d="M550.765 180.831C512.502 180.831 495.016 152.577 494.332 151.378C492.432 148.21 493.432 144.129 496.577 142.229C499.723 140.335 503.821 141.329 505.732 144.474C506.294 145.403 520.219 167.49 550.759 167.49C581.299 167.49 596.633 145.24 597.247 144.258C599.281 141.241 603.385 140.352 606.478 142.375C609.523 144.375 610.418 148.461 608.401 151.536C607.647 152.74 589.01 180.819 550.759 180.819L550.765 180.831Z" fill="#FFCA05"/>
</g>
<defs>
<clipPath id="clip0_3067_177864">
<rect width="840.443" height="200" fill="white"/>
</clipPath>
</defs>
</svg>
