<svg width="222" height="238" viewBox="0 0 222 238" fill="none" xmlns="http://www.w3.org/2000/svg">
<path d="M173.236 169.181C173.236 169.181 172.708 184.233 177.778 184.1C180.974 184.004 178.31 169.039 178.31 169.039L173.236 169.181Z" fill="url(#paint0_linear_3091_181961)"/>
<path d="M186.596 171.28C186.596 171.28 184.274 184.406 186.095 184.026C187.916 183.645 190.154 182.829 192.039 173.37C193.923 163.912 186.596 171.28 186.596 171.28Z" fill="url(#paint1_linear_3091_181961)"/>
<path d="M181.677 171.998C181.677 171.998 179.355 185.124 181.181 184.757C183.007 184.39 185.236 183.547 187.125 174.102C189.015 164.657 181.677 171.998 181.677 171.998Z" fill="url(#paint2_linear_3091_181961)"/>
<path d="M173.015 154.206C173.015 154.206 169.347 182.759 185.774 177.266C200.857 172.217 204.384 156.563 197.811 133.064C191.239 109.566 172.168 58.2809 155.405 60.1163C155.405 60.1163 170.945 150.474 173.015 154.206Z" fill="url(#paint3_radial_3091_181961)"/>
<path d="M49.4604 69.7328C49.4604 69.7328 33.7783 63.1507 21.6247 124.229C21.6247 124.229 23.6619 146.95 39.0585 132.805C54.4551 118.659 49.4604 69.7328 49.4604 69.7328Z" fill="url(#paint4_radial_3091_181961)"/>
<path d="M102.089 13.9113C102.089 13.9113 151.82 8.04104 167.139 104.319C182.459 200.597 149.353 203.558 112.785 209.834C95.3646 212.897 50.7695 210.348 39.7354 178.109C28.7013 145.869 36.75 99.6884 49.4694 69.737C62.1889 39.7856 75.0549 14.6574 102.089 13.9113Z" fill="url(#paint5_radial_3091_181961)"/>
<path d="M66.4777 204.045C66.4777 204.045 71.2952 229.108 86.7011 228.687C102.107 228.267 105.373 209.924 105.373 209.924L66.4777 204.045Z" fill="url(#paint6_radial_3091_181961)"/>
<path d="M144.996 201.907C144.996 201.907 141.552 227.189 126.146 227.609C110.74 228.029 106.5 209.887 106.5 209.887L144.996 201.907Z" fill="url(#paint7_radial_3091_181961)"/>
<path d="M111.864 62.4958C111.864 62.4958 110.165 68.4791 101.014 68.0199C91.3434 67.5441 91.1869 63.0568 91.1869 63.0568" stroke="#231F20" stroke-width="0.65" stroke-linecap="round" stroke-linejoin="round"/>
<path d="M82.1186 43.8392C82.15 44.784 82.4601 45.6984 83.0101 46.4672C83.56 47.2361 84.3252 47.825 85.2092 48.1599C86.0931 48.4947 87.0564 48.5606 87.9778 48.3491C88.8991 48.1375 89.7372 47.6582 90.3866 46.9713C91.0361 46.2844 91.4677 45.4207 91.6273 44.489C91.7868 43.5573 91.6671 42.5992 91.2833 41.7353C90.8994 40.8715 90.2685 40.1406 89.4701 39.6345C88.6716 39.1285 87.7413 38.8701 86.7963 38.8918C86.1637 38.9076 85.5405 39.0483 84.9625 39.3059C84.3845 39.5635 83.8632 39.9328 83.4284 40.3926C82.9937 40.8524 82.6542 41.3936 82.4294 41.9851C82.2046 42.5766 82.099 43.2068 82.1186 43.8392Z" fill="#231F20"/>
<path d="M110.284 43.0692C110.302 43.7243 110.455 44.3687 110.733 44.9621C111.012 45.5555 111.409 46.0851 111.901 46.5181C111.888 46.4204 111.881 46.322 111.881 46.2234C111.855 45.2888 112.103 44.3668 112.595 43.5714C113.086 42.7759 113.8 42.1417 114.647 41.7469C115.495 41.3521 116.44 41.2141 117.365 41.3497C118.29 41.4854 119.155 41.8889 119.854 42.5105C119.716 41.29 119.116 40.1688 118.176 39.3775C117.237 38.5863 116.03 38.1851 114.804 38.2567C113.578 38.3283 112.426 38.8671 111.585 39.7623C110.744 40.6575 110.279 41.841 110.284 43.0692Z" fill="#231F20"/>
<path d="M144.82 94.1913C140.74 88.6672 136.472 97.0634 136.472 97.0634C136.472 97.0634 131.781 88.8991 127.988 94.6553C124.195 100.411 136.698 105.383 136.832 109.026C136.698 105.383 148.917 99.7237 144.82 94.1913Z" fill="white"/>
<path d="M29.8049 93.3883C29.8049 93.3883 41.9195 102.984 37.9165 122.102C33.9135 141.22 30.5394 140.982 20.8759 138.026C11.2125 135.071 1.05134 123.837 8.30149 111.952C15.5516 100.067 19.5253 88.0435 29.8049 93.3883Z" fill="url(#paint8_radial_3091_181961)"/>
<path d="M29.8615 101.719C26.8018 102.96 23.3989 103.065 20.2686 102.015C15.4258 100.175 15.8513 94.2385 18.0123 93.6173C20.1733 92.9961 18.7071 86.1226 19.9281 84.4039C21.1491 82.6852 21.9703 81.5316 25.3751 81.3882C28.7799 81.2447 28.2708 86.9783 28.2708 86.9783L28.4351 93.864C28.4351 93.864 35.5164 97.0622 29.8615 101.719Z" fill="url(#paint9_radial_3091_181961)"/>
<path d="M7.70773 109.199C7.70773 109.199 21.2222 111.127 23.7586 112.555C26.295 113.983 23.6637 115.807 19.7458 115.992C15.8279 116.177 4.10748 115.208 7.70773 109.199Z" fill="url(#paint10_radial_3091_181961)"/>
<path d="M10.6476 102.396C10.6476 102.396 6.86125 102.871 6.8667 104.961C6.87214 107.051 7.35858 108.228 12.1148 108.446C16.871 108.665 23.7246 112.726 27.9591 109.84C32.1936 106.954 17.3981 104.51 10.6476 102.396Z" fill="url(#paint11_radial_3091_181961)"/>
<path d="M21.3938 99.1537C21.3938 99.1537 10.2395 93.3892 8.39232 98.031C6.54516 102.673 19.0354 102.794 22.507 103.615C25.9787 104.435 30.613 106.323 29.7139 103.421C28.6261 99.894 21.3938 99.1537 21.3938 99.1537Z" fill="url(#paint12_radial_3091_181961)"/>
<defs>
<linearGradient id="paint0_linear_3091_181961" x1="177.904" y1="177.373" x2="171.985" y2="177.539" gradientUnits="userSpaceOnUse">
<stop stop-color="#FFF23A"/>
<stop offset="0.14" stop-color="#FEE62D"/>
<stop offset="0.42" stop-color="#FED41A"/>
<stop offset="0.7" stop-color="#FDC90F"/>
<stop offset="1" stop-color="#FDC60B"/>
</linearGradient>
<linearGradient id="paint1_linear_3091_181961" x1="191.102" y1="177.005" x2="183.872" y2="177.207" gradientUnits="userSpaceOnUse">
<stop stop-color="#FFF23A"/>
<stop offset="0.14" stop-color="#FEE62D"/>
<stop offset="0.42" stop-color="#FED41A"/>
<stop offset="0.7" stop-color="#FDC90F"/>
<stop offset="1" stop-color="#FDC60B"/>
</linearGradient>
<linearGradient id="paint2_linear_3091_181961" x1="186.182" y1="177.734" x2="178.951" y2="177.935" gradientUnits="userSpaceOnUse">
<stop stop-color="#FFF23A"/>
<stop offset="0.14" stop-color="#FEE62D"/>
<stop offset="0.42" stop-color="#FED41A"/>
<stop offset="0.7" stop-color="#FDC90F"/>
<stop offset="1" stop-color="#FDC60B"/>
</linearGradient>
<radialGradient id="paint3_radial_3091_181961" cx="0" cy="0" r="1" gradientUnits="userSpaceOnUse" gradientTransform="translate(177.119 119.499) rotate(178.4) scale(44.6702)">
<stop stop-color="#FFF23A"/>
<stop offset="0.14" stop-color="#FEE62D"/>
<stop offset="0.42" stop-color="#FED41A"/>
<stop offset="0.7" stop-color="#FDC90F"/>
<stop offset="1" stop-color="#FDC60B"/>
</radialGradient>
<radialGradient id="paint4_radial_3091_181961" cx="0" cy="0" r="1" gradientUnits="userSpaceOnUse" gradientTransform="translate(34.2349 104.368) rotate(178.4) scale(26.0868 26.0868)">
<stop stop-color="#FFF23A"/>
<stop offset="0.14" stop-color="#FEE62D"/>
<stop offset="0.42" stop-color="#FED41A"/>
<stop offset="0.7" stop-color="#FDC90F"/>
<stop offset="1" stop-color="#FDC60B"/>
</radialGradient>
<radialGradient id="paint5_radial_3091_181961" cx="0" cy="0" r="1" gradientUnits="userSpaceOnUse" gradientTransform="translate(100.323 113.105) rotate(178.4) scale(84.8123 84.8123)">
<stop stop-color="#FFF23A"/>
<stop offset="0.14" stop-color="#FEE62D"/>
<stop offset="0.42" stop-color="#FED41A"/>
<stop offset="0.7" stop-color="#FDC90F"/>
<stop offset="1" stop-color="#FDC60B"/>
</radialGradient>
<radialGradient id="paint6_radial_3091_181961" cx="0" cy="0" r="1" gradientUnits="userSpaceOnUse" gradientTransform="translate(85.2646 217.19) rotate(178.4) scale(16.3494 44.5225)">
<stop stop-color="#FFF23A"/>
<stop offset="0.14" stop-color="#FEE62D"/>
<stop offset="0.42" stop-color="#FED41A"/>
<stop offset="0.7" stop-color="#FDC90F"/>
<stop offset="1" stop-color="#FDC60B"/>
</radialGradient>
<radialGradient id="paint7_radial_3091_181961" cx="0" cy="0" r="1" gradientUnits="userSpaceOnUse" gradientTransform="translate(124.724 216.123) rotate(178.4) scale(16.3493 40.8734)">
<stop stop-color="#FFF23A"/>
<stop offset="0.14" stop-color="#FEE62D"/>
<stop offset="0.42" stop-color="#FED41A"/>
<stop offset="0.7" stop-color="#FDC90F"/>
<stop offset="1" stop-color="#FDC60B"/>
</radialGradient>
<radialGradient id="paint8_radial_3091_181961" cx="0" cy="0" r="1" gradientUnits="userSpaceOnUse" gradientTransform="translate(20.5595 116.726) rotate(178.4) scale(20.4868)">
<stop stop-color="#FFF23A"/>
<stop offset="0.14" stop-color="#FEE62D"/>
<stop offset="0.42" stop-color="#FED41A"/>
<stop offset="0.7" stop-color="#FDC90F"/>
<stop offset="1" stop-color="#FDC60B"/>
</radialGradient>
<radialGradient id="paint9_radial_3091_181961" cx="0" cy="0" r="1" gradientUnits="userSpaceOnUse" gradientTransform="translate(22.1859 87.7679) rotate(178.4) scale(13.1837)">
<stop stop-color="#FFF23A"/>
<stop offset="0.14" stop-color="#FEE62D"/>
<stop offset="0.42" stop-color="#FED41A"/>
<stop offset="0.7" stop-color="#FDC90F"/>
<stop offset="1" stop-color="#FDC60B"/>
</radialGradient>
<radialGradient id="paint10_radial_3091_181961" cx="0" cy="0" r="1" gradientUnits="userSpaceOnUse" gradientTransform="translate(14.965 116.757) rotate(-167.081) scale(10.052 3.48866)">
<stop stop-color="#FFF23A"/>
<stop offset="0.14" stop-color="#FEE62D"/>
<stop offset="0.42" stop-color="#FED41A"/>
<stop offset="0.7" stop-color="#FDC90F"/>
<stop offset="1" stop-color="#FDC60B"/>
</radialGradient>
<radialGradient id="paint11_radial_3091_181961" cx="0" cy="0" r="1" gradientUnits="userSpaceOnUse" gradientTransform="translate(15.8889 102.153) rotate(-164.727) scale(8.30356 2.59997)">
<stop stop-color="#FFF23A"/>
<stop offset="0.14" stop-color="#FEE62D"/>
<stop offset="0.42" stop-color="#FED41A"/>
<stop offset="0.7" stop-color="#FDC90F"/>
<stop offset="1" stop-color="#FDC60B"/>
</radialGradient>
<radialGradient id="paint12_radial_3091_181961" cx="0" cy="0" r="1" gradientUnits="userSpaceOnUse" gradientTransform="translate(21.3205 105.687) rotate(-165.954) scale(12.2855 2.99961)">
<stop stop-color="#FFF23A"/>
<stop offset="0.14" stop-color="#FEE62D"/>
<stop offset="0.42" stop-color="#FED41A"/>
<stop offset="0.7" stop-color="#FDC90F"/>
<stop offset="1" stop-color="#FDC60B"/>
</radialGradient>
</defs>
</svg>
