<svg width="14" height="14" viewBox="0 0 14 14" fill="none" xmlns="http://www.w3.org/2000/svg">
<path d="M10.5 5.6875H9.625C9.62465 5.33951 9.48626 5.00587 9.24019 4.75981C8.99413 4.51374 8.66049 4.37535 8.3125 4.375V3.5C8.89245 3.50069 9.44844 3.73139 9.85853 4.14147C10.2686 4.55156 10.4993 5.10755 10.5 5.6875Z" fill="#013354"/>
<path d="M12.25 5.6875H11.375C11.374 4.87556 11.0511 4.09714 10.4769 3.52301C9.90282 2.94888 9.1244 2.62593 8.31246 2.625V1.75C9.35639 1.75116 10.3572 2.16637 11.0954 2.90455C11.8336 3.64272 12.2488 4.64357 12.25 5.6875ZM11.375 12.6875H11.3006C2.70371 12.1931 1.48308 4.93938 1.31245 2.72563C1.28579 2.37858 1.39807 2.03515 1.62459 1.77088C1.85112 1.50661 2.17335 1.34314 2.52039 1.31644C2.5551 1.31381 2.58995 1.3125 2.62495 1.3125H4.93058C5.10582 1.31233 5.27708 1.36479 5.42217 1.46307C5.56726 1.56136 5.67949 1.70094 5.74433 1.86375L6.40933 3.5C6.47336 3.65905 6.48925 3.83341 6.45502 4.00142C6.4208 4.16942 6.33797 4.32367 6.21683 4.445L5.28495 5.38563C5.42993 6.21308 5.82587 6.97593 6.4191 7.57072C7.01233 8.16552 7.77413 8.56347 8.60121 8.71062L9.55058 7.77C9.67374 7.65019 9.82944 7.5693 9.99827 7.5374C10.1671 7.5055 10.3416 7.52401 10.5 7.59063L12.1493 8.25125C12.3097 8.31814 12.4465 8.43125 12.5423 8.57617C12.6382 8.72109 12.6887 8.89126 12.6875 9.065V11.375C12.6875 11.7231 12.5492 12.0569 12.303 12.3031C12.0569 12.5492 11.7231 12.6875 11.375 12.6875ZM2.62495 2.1875C2.5675 2.18733 2.51058 2.19847 2.45743 2.2203C2.40428 2.24213 2.35596 2.27421 2.31521 2.31471C2.27446 2.35522 2.24209 2.40335 2.21995 2.45636C2.1978 2.50938 2.18631 2.56623 2.18614 2.62369C2.18614 2.63594 2.18658 2.64804 2.18745 2.66C2.3887 5.25 3.67933 11.375 11.3487 11.8125C11.4645 11.8194 11.5783 11.7801 11.6651 11.7031C11.7519 11.6262 11.8046 11.5179 11.8116 11.4021L11.8125 11.375V9.065L10.1631 8.40437L8.90746 9.65125L8.69745 9.625C4.8912 9.14813 4.37495 5.34188 4.37495 5.3025L4.3487 5.0925L5.5912 3.83688L4.93495 2.1875H2.62495Z" fill="#013354"/>
</svg>
