<svg width="24" height="25" viewBox="0 0 24 25" fill="none" xmlns="http://www.w3.org/2000/svg">
<path d="M21 5.38599H3C2.60218 5.38599 2.22064 5.54402 1.93934 5.82533C1.65804 6.10663 1.5 6.48816 1.5 6.88599V18.886C1.5 19.2838 1.65804 19.6653 1.93934 19.9466C2.22064 20.228 2.60218 20.386 3 20.386H21C21.3978 20.386 21.7794 20.228 22.0607 19.9466C22.342 19.6653 22.5 19.2838 22.5 18.886V6.88599C22.5 6.48816 22.342 6.10663 22.0607 5.82533C21.7794 5.54402 21.3978 5.38599 21 5.38599ZM19.35 6.88599L12 11.971L4.65 6.88599H19.35ZM3 18.886V7.56849L11.5725 13.501C11.698 13.5881 11.8472 13.6348 12 13.6348C12.1528 13.6348 12.302 13.5881 12.4275 13.501L21 7.56849V18.886H3Z" fill="white"/>
</svg>
