<svg width="24" height="24" viewBox="0 0 24 24" fill="none" xmlns="http://www.w3.org/2000/svg">
<path d="M22.0001 12.0612C22.0001 6.50375 17.5226 1.99875 12.0001 1.99875C6.47506 2 1.99756 6.50375 1.99756 12.0625C1.99756 17.0837 5.65506 21.2462 10.4351 22.0012V14.97H7.89756V12.0625H10.4376V9.84375C10.4376 7.3225 11.9313 5.93 14.2151 5.93C15.3101 5.93 16.4538 6.12625 16.4538 6.12625V8.60125H15.1926C13.9513 8.60125 13.5638 9.3775 13.5638 10.1737V12.0612H16.3363L15.8938 14.9687H13.5626V22C18.3426 21.245 22.0001 17.0825 22.0001 12.0612Z" fill="#02114E"/>
<path d="M22.0001 12.0612C22.0001 6.50375 17.5226 1.99875 12.0001 1.99875C6.47506 2 1.99756 6.50375 1.99756 12.0625C1.99756 17.0837 5.65506 21.2462 10.4351 22.0012V14.97H7.89756V12.0625H10.4376V9.84375C10.4376 7.3225 11.9313 5.93 14.2151 5.93C15.3101 5.93 16.4538 6.12625 16.4538 6.12625V8.60125H15.1926C13.9513 8.60125 13.5638 9.3775 13.5638 10.1737V12.0612H16.3363L15.8938 14.9687H13.5626V22C18.3426 21.245 22.0001 17.0825 22.0001 12.0612Z" fill="url(#paint0_linear_438_10498)"/>
<defs>
<linearGradient id="paint0_linear_438_10498" x1="11.9988" y1="1.99875" x2="11.9988" y2="22.0012" gradientUnits="userSpaceOnUse">
<stop stop-color="#4FA6F6"/>
<stop offset="1" stop-color="#2860D9"/>
</linearGradient>
</defs>
</svg>
