<svg width="120" height="94" viewBox="0 0 120 94" fill="none" xmlns="http://www.w3.org/2000/svg">
<path d="M65.43 25.3216C65.2927 22.1353 65.8613 18.958 67.0954 16.0159C68.3295 13.0738 70.1987 10.4392 72.57 8.29969L72.5887 8.28473C77.4973 3.94377 83.8899 1.64884 90.4462 1.87392H90.405C94.3679 1.66018 98.3294 2.31948 102.008 3.80497C105.687 5.29045 108.992 7.56569 111.69 10.469L111.705 10.484C117.113 16.8851 119.872 25.1017 119.419 33.4604L119.422 33.3819C119.674 42.0624 118.056 50.6957 114.679 58.6997L114.829 58.2995C112.132 64.5742 108.392 70.3494 103.766 75.3813L103.807 75.3364C99.984 79.4735 95.5536 83.0084 90.6675 85.8204L90.3975 85.9625C86.7019 88.0889 82.8451 89.9235 78.8625 91.4495L78.2775 91.6477L66.525 71.8617C71.4087 69.8964 75.6955 66.6971 78.9637 62.5784L79.0125 62.5148C82.2667 58.6485 84.3078 53.9122 84.8812 48.8965L84.8925 48.7768C82.3351 48.7129 79.8202 48.1108 77.5124 47.0099C75.2047 45.909 73.1562 44.3341 71.5012 42.3885L71.4787 42.3623C67.2709 37.6892 65.0941 31.5416 65.4262 25.2693L65.4225 25.3254L65.43 25.3216ZM1.87503 25.3216C1.73977 22.1352 2.30972 18.9582 3.54437 16.0163C4.77902 13.0744 6.64809 10.4398 9.01877 8.29969L9.03752 8.28473C13.9451 3.9421 20.3384 1.64692 26.895 1.87392H26.8538C30.8168 1.65914 34.7786 2.31796 38.4574 3.80351C42.1363 5.28907 45.4417 7.56486 48.1387 10.469L48.1537 10.4877C53.5643 16.8891 56.323 25.1077 55.8675 33.4679L55.8712 33.3894C56.1226 42.0698 54.505 50.7032 51.1275 58.7072L51.2775 58.307C48.5821 64.5815 44.8432 70.3567 40.2188 75.3888L40.26 75.3439C36.4352 79.4811 32.0036 83.0159 27.1163 85.8279L26.8463 85.97C23.1515 88.0979 19.2946 89.9325 15.3113 91.457L14.7263 91.6552L2.97753 71.8692C7.86193 69.9015 12.1487 66.6996 15.4163 62.5784L15.465 62.5148C18.7193 58.6485 20.7604 53.9122 21.3338 48.8965L21.345 48.7768C18.7887 48.7133 16.2747 48.1113 13.9681 47.0103C11.6615 45.9093 9.61447 44.3342 7.96127 42.3885L7.93877 42.3623C3.72632 37.6927 1.54526 31.5459 1.87503 25.273L1.87128 25.3291L1.87503 25.3216Z" fill="white"/>
</svg>
