<svg width="24" height="24" viewBox="0 0 24 24" fill="none" xmlns="http://www.w3.org/2000/svg">
<path d="M11.9842 2C10.3784 2.02333 6.92829 2.28667 5.00075 4.05587C3.56906 5.48924 3.06405 7.58344 3.01155 10.181C2.95905 12.7777 2.89071 17.647 7.58414 18.967H7.58664L7.5833 20.9804C7.5833 20.9804 7.55247 21.7946 8.09165 21.9612C8.73916 22.1629 9.12 21.5446 9.74168 20.8762C10.0809 20.5095 10.5517 19.9729 10.9059 19.5595C14.1143 19.8312 16.5827 19.2128 16.8643 19.122C17.511 18.912 21.1777 18.442 21.7744 13.5744C22.3911 8.55763 21.4744 5.38257 19.8244 3.95254C19.3277 3.4942 17.3193 2.03583 12.8451 2.01667C12.8451 2.01667 12.5159 1.99583 11.9809 2.0025L11.9842 2ZM12.0326 3.41086C12.4867 3.40753 12.7659 3.42503 12.7659 3.42503C16.551 3.4417 18.3635 4.58172 18.7844 4.96339C20.1802 6.15925 20.8927 9.02014 20.3727 13.2111V13.2127C19.8694 17.2778 16.8943 17.5328 16.346 17.7086C16.1126 17.7836 13.9443 18.3228 11.2184 18.1453C11.2184 18.1453 9.18834 20.5954 8.55416 21.232C8.45415 21.3321 8.33749 21.3712 8.26082 21.3521C8.15248 21.3246 8.12248 21.1954 8.12331 21.007L8.13998 17.6586C4.17157 16.5586 4.40241 12.4152 4.44824 10.246C4.49324 8.07595 4.90075 6.29759 6.11161 5.10173C7.74497 3.6242 10.6734 3.42003 12.0367 3.41003L12.0326 3.41086ZM12.3492 5.57924C12.2846 5.5825 12.2237 5.61035 12.179 5.65708C12.1342 5.70382 12.1091 5.76589 12.1087 5.83059C12.1082 5.89528 12.1326 5.95768 12.1767 6.005C12.2208 6.05232 12.2813 6.08097 12.3459 6.08508C13.6993 6.09341 14.8009 6.53259 15.7026 7.41177C16.5968 8.28346 17.0527 9.46848 17.0635 11.0235C17.0652 11.1627 17.1802 11.2735 17.3193 11.2735C17.3859 11.2726 17.4495 11.2456 17.4963 11.1981C17.5431 11.1507 17.5693 11.0868 17.5693 11.0202C17.5577 9.36681 17.0543 8.02345 16.056 7.0501C15.0643 6.08341 13.8126 5.58924 12.3501 5.57924H12.3492ZM9.04917 6.15842C8.87199 6.13388 8.69166 6.16814 8.53582 6.25592L8.52749 6.25758C8.16915 6.46342 7.84748 6.72593 7.57247 7.03427C7.5708 7.0376 7.56747 7.0376 7.5658 7.04093C7.3433 7.31011 7.2158 7.57261 7.18246 7.83095C7.17594 7.86947 7.17398 7.90863 7.17663 7.94762C7.17663 8.06095 7.19496 8.17262 7.2308 8.28096L7.24163 8.28929C7.35413 8.6893 7.6358 9.35265 8.24582 10.4593C8.59582 11.0993 8.99833 11.7094 9.45084 12.281C9.67584 12.5677 9.91752 12.8419 10.1759 13.1011L10.2859 13.2111C10.5442 13.4677 10.8192 13.7111 11.1059 13.9361C11.678 14.3887 12.2874 14.7921 12.9276 15.1419C14.0343 15.7528 14.6993 16.0336 15.0976 16.1469L15.106 16.1586C15.2509 16.206 15.4044 16.2216 15.556 16.2044C15.8143 16.1744 16.0785 16.0461 16.346 15.8211C16.3493 15.8211 16.3485 15.8194 16.3526 15.8169C16.661 15.5419 16.9218 15.2169 17.1277 14.8603L17.1302 14.8519C17.3177 14.4919 17.2552 14.1502 16.9802 13.9186C16.9768 13.9186 16.3985 13.4352 16.116 13.2269C15.816 13.0144 15.5076 12.8169 15.1885 12.6352C14.7634 12.3977 14.3284 12.5469 14.1484 12.7802L13.7759 13.2502C13.5843 13.4861 13.2284 13.4552 13.2284 13.4552C10.6284 12.7919 9.93252 10.1593 9.93252 10.1593C9.93252 10.1593 9.90168 9.80432 10.1392 9.61265L10.6084 9.23931C10.8392 9.06014 10.9884 8.62513 10.75 8.19929C10.569 7.87952 10.3715 7.56938 10.1584 7.2701C9.93455 6.97724 9.70393 6.68966 9.46667 6.40759C9.36217 6.27672 9.21335 6.18867 9.04833 6.16008L9.04917 6.15842ZM12.7909 6.89176C12.7239 6.88977 12.6589 6.91447 12.6102 6.96042C12.5614 7.00636 12.5329 7.0698 12.5309 7.13677C12.5289 7.20374 12.5536 7.26875 12.5996 7.31751C12.6455 7.36627 12.7089 7.39478 12.7759 7.39677C13.7426 7.46761 14.4568 7.78511 14.9801 8.35513C15.5051 8.92847 15.7551 9.62515 15.7351 10.4968C15.7388 10.5609 15.7664 10.6213 15.8126 10.6659C15.8588 10.7104 15.9201 10.736 15.9843 10.7373C16.0485 10.7387 16.1108 10.7158 16.1588 10.6732C16.2069 10.6307 16.2371 10.5715 16.2435 10.5077C16.2643 9.52848 15.9651 8.68013 15.3543 8.01262C14.7376 7.33761 13.8734 6.96843 12.8126 6.89093H12.7926L12.7909 6.89176ZM13.1767 8.25012C13.1126 8.25106 13.0511 8.27624 13.0048 8.32061C12.9584 8.36497 12.9305 8.42523 12.9267 8.4893C12.9201 8.62847 13.0267 8.74763 13.1667 8.75597C13.6026 8.7793 13.8959 8.9018 14.0943 9.10764C14.2943 9.31181 14.4176 9.62432 14.4409 10.0777C14.4495 10.1405 14.4814 10.1978 14.5301 10.2383C14.5789 10.2788 14.6412 10.2995 14.7045 10.2964C14.7678 10.2933 14.8277 10.2665 14.8722 10.2214C14.9168 10.1762 14.9428 10.116 14.9451 10.0527C14.9201 9.51598 14.7659 9.07097 14.4618 8.75513C14.1559 8.44013 13.7176 8.27679 13.1951 8.24929H13.1801L13.1767 8.25012Z" fill="#7D3DAF"/>
</svg>
